<svg width="14" height="14" viewBox="0 0 14 14" fill="none" xmlns="http://www.w3.org/2000/svg">
<path fill-rule="evenodd" clip-rule="evenodd" d="M8.32929 4C7.91746 5.16519 6.80622 6 5.5 6C4.19378 6 3.08254 5.16519 2.67071 4H1C0.447715 4 0 3.55228 0 3C0 2.44772 0.447715 2 1 2H2.67071C3.08254 0.834808 4.19378 0 5.5 0C6.80622 0 7.91746 0.834808 8.32929 2H13C13.5523 2 14 2.44772 14 3C14 3.55228 13.5523 4 13 4H8.32929ZM4.5 3C4.5 2.44772 4.94772 2 5.5 2C6.05229 2 6.5 2.44772 6.5 3C6.5 3.55228 6.05229 4 5.5 4C4.94772 4 4.5 3.55228 4.5 3Z" fill="#242629"/>
<path fill-rule="evenodd" clip-rule="evenodd" d="M5.67071 10C6.08254 8.83481 7.19378 8 8.5 8C9.80622 8 10.9175 8.83481 11.3293 10H13C13.5523 10 14 10.4477 14 11C14 11.5523 13.5523 12 13 12H11.3293C10.9175 13.1652 9.80622 14 8.5 14C7.19378 14 6.08254 13.1652 5.67071 12H1C0.447715 12 4.82825e-08 11.5523 0 11C-4.8282e-08 10.4477 0.447715 10 1 10H5.67071ZM9.5 11C9.5 11.5523 9.05228 12 8.5 12C7.94772 12 7.5 11.5523 7.5 11C7.5 10.4477 7.94772 10 8.5 10C9.05228 10 9.5 10.4477 9.5 11Z" fill="#242629"/>
</svg>
