<svg width="20" height="18" viewBox="0 0 20 18" fill="none" xmlns="http://www.w3.org/2000/svg">
<path d="M8.20643 0C4.04934 0 0.671387 3.12438 0.671387 6.9694C0.671387 10.8144 4.04934 13.9388 8.20643 13.9388C9.85126 13.9388 11.3714 13.4488 12.6111 12.6192L18.4424 18L19.6891 16.847L13.927 11.5046C15.0593 10.2843 15.7415 8.70054 15.7415 6.9694C15.7415 3.12438 12.3635 0 8.20643 0ZM8.20643 0.819929C11.8839 0.819929 14.855 3.56797 14.855 6.9694C14.855 10.3708 11.8839 13.1189 8.20643 13.1189C4.52894 13.1189 1.55786 10.3708 1.55786 6.9694C1.55786 3.56797 4.52894 0.819929 8.20643 0.819929Z" fill="#E9711B"/>
</svg>
