<svg width="40" height="40" viewBox="0 0 40 40" fill="none" xmlns="http://www.w3.org/2000/svg">
<g clip-path="url(#clip0_24_86)">
<rect width="40" height="40" rx="20" fill="white"/>
<path d="M31.0781 34.7658V35.6276L24.9194 39.428C25.266 39.3403 25.6102 39.2437 25.9505 39.137L31.0781 35.9733L31.6254 36.3101C31.9238 36.0966 32.2172 35.8742 32.5029 35.6441L31.0781 34.7658Z" fill="#E9711B"/>
<path d="M11.3968 36.4105V37.2723L10.6616 37.7261C10.7619 37.7794 10.8635 37.8316 10.9663 37.8837L11.3981 37.618L13.6495 39.0073C14.692 39.3568 15.7739 39.6225 16.8851 39.7966L11.3968 36.4105Z" fill="#E9711B"/>
<path d="M3.85651 31.7954L11.3968 27.142L17.3841 30.8357V31.7229L11.3968 28.0292V28.891L4.7619 32.9863C4.82667 33.0626 4.89143 33.1376 4.95619 33.2113L11.3968 29.2367L17.3841 32.9304V33.8176L11.3968 30.1239V30.9857L6.00127 34.3159C6.07365 34.387 6.14603 34.4569 6.21968 34.5269L11.3981 31.3314L17.3854 35.0251V35.9123L11.3968 32.2212V33.0829L7.38667 35.5564C7.46794 35.6225 7.54794 35.6873 7.63048 35.7521L11.3968 33.4287L17.3841 37.1223V38.0095L11.3968 34.3159V35.1776L8.93333 36.6978C9.02349 36.7575 9.11365 36.8173 9.20508 36.8758L11.3968 35.5234L17.3841 39.217V39.8678C17.6279 39.8996 17.873 39.9275 18.1194 39.9504V38.2739L21.2317 36.3534L22.7568 37.2952V38.1837L21.2317 37.2418V38.1036L18.2222 39.9606C18.3898 39.9758 18.5575 39.9886 18.7263 39.9987L21.2317 38.4531L22.7568 39.395V39.8513C23.0184 39.8157 23.2787 39.7738 23.5378 39.728V38.5332L31.0781 33.8799L33.1136 35.1357C33.3829 34.9018 33.6444 34.6616 33.8997 34.4137L31.0781 32.6724V33.5342L23.5378 38.1875V36.4372L31.0781 31.7839L34.447 33.8634C34.6882 33.6117 34.9219 33.3537 35.1492 33.0893L31.0768 30.5777V31.4395L23.5365 36.0928V34.3425L31.0768 29.6892L35.6356 32.5021C35.8502 32.2326 36.0571 31.9581 36.259 31.6784L31.0768 28.4817V29.3435L23.5365 33.9968V32.2466L31.0768 27.5933L36.6883 31.0556C38.781 27.8907 40 24.0979 40 20.0191C40 8.96346 31.0451 0 20 0C8.95492 0 0 8.96346 0 20.0191C0 24.4398 1.43238 28.5262 3.85651 31.8386V31.7954ZM21.2317 15.395L27.219 19.0887V19.9758L21.2317 16.2822V17.1439L17.5225 19.4331L16.1041 18.5586L21.2317 15.395ZM15.8248 18.3858L14.4063 17.5113L21.2305 13.3003L27.2178 16.994V17.8812L21.2305 14.1875V15.0493L15.8248 18.3858ZM17.8032 19.606L21.2317 17.4897L27.219 21.1833V22.0705L21.2317 18.3769V19.2386L18.1194 21.1592V19.8004L17.8032 19.606ZM26.8254 23.0365L26.1067 23.4801L21.233 20.4741V21.3359L18.1206 23.2564V21.5062L21.233 19.5856L26.8254 23.0365ZM22.7568 36.0839L21.2317 35.1433V36.0051L18.1194 37.9256V36.1754L21.2317 34.2548L22.7568 35.1967V36.0839ZM22.7568 33.9854L21.2317 33.0448V33.9066L18.1194 35.8271V34.0769L21.2317 32.1563L22.7568 33.0982V33.9854ZM22.7568 31.8907L21.2317 30.9501V31.8119L18.1194 33.7324V31.9822L21.2317 30.0616L22.7568 31.0035V31.8907ZM22.7568 29.796L21.2317 28.8554V29.7172L18.1194 31.6378V29.8875L21.2317 27.967L22.7568 28.9088V29.796ZM22.7568 27.7L21.2317 26.7595V27.6212L18.1194 29.5418V27.7915L21.2317 25.871L22.7568 26.8128V27.7ZM22.7568 25.5456V25.6041L21.2317 24.6635V25.5253L18.1194 27.4458V25.6956L21.2317 23.775L23.4286 25.1312L22.7568 25.5456ZM21.2317 22.5688V23.4306L18.1194 25.3511V23.6009L21.2317 21.6803L25.1263 24.0839L24.4063 24.5275L21.2317 22.5688ZM37.0654 30.0782L31.0781 26.3845V27.2463L23.5378 31.8996V30.1493L31.0781 25.496L37.0654 29.1897V30.0782ZM37.0654 27.9835L31.0781 24.2898V25.1516L23.5378 29.8049V28.0547L31.0781 23.4013L37.0654 27.095V27.9835ZM37.0654 25.0003V25.8875L31.0781 22.1938V23.0556L23.5378 27.7089V25.9587L31.0781 21.3054L37.0654 25.0003ZM13.6914 13.7617L21.2317 9.10836L27.219 12.802V13.6892L21.2317 9.99809V10.8599L13.6914 15.5132V13.7617ZM13.6914 15.8576L21.2317 11.2043L27.219 14.898V15.7852L21.2317 12.0928V12.9546L14.127 17.3384L13.6902 17.069V15.8576H13.6914ZM3.85651 21.3194L11.3968 16.666L17.3841 20.3597V21.2469L11.3968 17.5532V18.415L3.85651 23.0683V21.3194ZM3.85651 23.414L11.3968 18.7607L17.3841 22.4544V23.3416L11.3968 19.6479V20.5097L3.85651 25.163V23.414ZM3.85651 25.5087L11.3968 20.8554L17.3841 24.5491V25.4363L11.3968 21.7426V22.6044L3.85651 27.2577V25.5087ZM3.85651 27.6047L11.3968 22.9514L17.3841 26.6451V27.5323L11.3968 23.8386V24.7003L3.85651 29.3537V27.6047ZM3.85651 29.6994L11.3968 25.0461L17.3841 28.7398V29.6269L11.3968 25.9333V26.795L3.85651 31.4484V29.6994Z" fill="#E9711B"/>
<path d="M21.2318 40C21.5479 39.9809 21.8616 39.9542 22.1727 39.9199L21.2318 39.3391V40Z" fill="#E9711B"/>
</g>
<defs>
<clipPath id="clip0_24_86">
<rect width="40" height="40" fill="white"/>
</clipPath>
</defs>
</svg>
